<?xml version="1.0" encoding="UTF-8" standalone="no"?>
<!-- Created with Inkscape (http://www.inkscape.org/) -->

<svg
   width="519.99829"
   height="153.89"
   viewBox="0 0 137.58288 40.71673"
   version="1.1"
   id="svg1708"
   inkscape:version="1.1.1 (3bf5ae0d25, 2021-09-20)"
   sodipodi:docname="banner2.svg"
   xmlns:inkscape="http://www.inkscape.org/namespaces/inkscape"
   xmlns:sodipodi="http://sodipodi.sourceforge.net/DTD/sodipodi-0.dtd"
   xmlns="http://www.w3.org/2000/svg"
   xmlns:svg="http://www.w3.org/2000/svg">
  <sodipodi:namedview
     id="namedview1710"
     pagecolor="#ffffff"
     bordercolor="#666666"
     borderopacity="1.0"
     inkscape:pageshadow="2"
     inkscape:pageopacity="0"
     inkscape:pagecheckerboard="0"
     inkscape:document-units="mm"
     showgrid="false"
     units="px"
     fit-margin-top="10"
     fit-margin-left="10"
     fit-margin-right="10"
     fit-margin-bottom="10"
     inkscape:zoom="0.79909512"
     inkscape:cx="498.06336"
     inkscape:cy="178.32671"
     inkscape:window-width="1920"
     inkscape:window-height="1080"
     inkscape:window-x="0"
     inkscape:window-y="0"
     inkscape:window-maximized="1"
     inkscape:current-layer="layer1" />
  <defs
     id="defs1705" />
  <g
     inkscape:label="Layer 1"
     inkscape:groupmode="layer"
     id="layer1"
     transform="translate(26.91208,-101.35971)">
    <g
       id="g1516"
       transform="matrix(0.13847263,0,0,0.13847263,-91.054366,46.94197)"
       style="fill:#ffdf02;fill-opacity:1">
      <g
         id="g1506"
         style="fill:#ffdf02;fill-opacity:1">
        <path
           class="cls-1"
           d="m 789.01,519.22 c -2.51,0 -4.59,0.97 -6.03,2.81 -1.3,1.66 -1.96,3.66 -1.98,5.95 l -0.46,6.44 c -3.17,-3.02 -6.69,-5.94 -10.52,-8.72 -5.67,-4.11 -12.15,-6.2 -19.24,-6.2 -7.09,0 -13.22,1.42 -19.02,4.22 -5.75,2.78 -10.85,6.6 -15.15,11.35 -4.29,4.74 -7.65,10.23 -10.01,16.32 -2.35,6.09 -3.54,12.5 -3.54,19.08 0,6.58 1.19,13.06 3.55,19.08 2.35,6.02 5.7,11.46 9.96,16.17 4.27,4.72 9.32,8.51 15.01,11.26 5.74,2.77 12.04,4.18 18.74,4.18 6.7,0 12.98,-1.94 18.94,-5.75 3.99,-2.56 7.64,-5.36 10.91,-8.37 v 4.91 c 0,2.43 0.87,4.54 2.59,6.25 1.72,1.72 3.82,2.59 6.25,2.59 2.43,0 4.53,-0.87 6.25,-2.59 1.72,-1.72 2.59,-3.82 2.59,-6.25 v -83.87 c 0,-2.43 -0.87,-4.53 -2.59,-6.25 -1.72,-1.72 -3.82,-2.59 -6.25,-2.59 z m -8.38,50.69 c 0,5.57 -1.4,10.91 -4.16,15.89 -2.77,5 -6.52,9.09 -11.13,12.18 -4.53,3.03 -9.59,4.57 -15.02,4.57 -5.43,0 -10.23,-1.5 -14.48,-4.45 -4.33,-3.01 -7.81,-7.02 -10.34,-11.91 -2.53,-4.89 -3.82,-10.18 -3.82,-15.71 0,-5.53 1.3,-10.92 3.86,-15.85 2.56,-4.92 6.1,-8.96 10.52,-12 4.34,-2.99 9.33,-4.5 14.81,-4.5 5.48,0 10.45,1.49 14.89,4.43 4.52,2.99 8.17,6.95 10.84,11.76 2.67,4.79 4.02,10.04 4.02,15.61 z"
           id="path1486"
           style="fill:#ffffff;fill-opacity:1" />
        <path
           class="cls-1"
           d="m 824.26,486.19 c -2.41,0 -4.59,1.07 -6.33,3.09 -1.67,1.95 -2.51,4.13 -2.51,6.49 v 116.62 c 0,2.69 1.02,5.03 2.96,6.76 1.89,1.69 4.21,2.55 6.9,2.55 1.9,0 3.82,-0.77 5.7,-2.28 2,-1.61 3.05,-3.69 3.05,-6 V 495.59 c 0,-2.25 -0.87,-4.38 -2.58,-6.33 -1.79,-2.04 -4.21,-3.07 -7.19,-3.07 z"
           id="path1488"
           style="fill:#ffffff;fill-opacity:1" />
        <path
           class="cls-1"
           d="m 936.16,519.87 c -2.56,0 -4.8,0.97 -6.47,2.81 -1.62,1.79 -2.45,3.95 -2.47,6.44 l -0.2,4.17 c -3.26,-2.96 -6.9,-5.63 -10.86,-7.98 -5.76,-3.42 -12.14,-5.15 -18.97,-5.15 -6.83,0 -13.11,1.4 -18.88,4.17 -5.73,2.75 -10.8,6.56 -15.06,11.31 -4.25,4.74 -7.6,10.17 -9.95,16.16 -2.35,6 -3.55,12.37 -3.55,18.95 0,6.58 1.21,12.97 3.6,19 2.38,6.02 5.74,11.45 10,16.16 4.27,4.72 9.34,8.51 15.06,11.26 5.77,2.77 12.09,4.17 18.78,4.17 6.69,0 12.58,-1.79 18.34,-5.31 3.85,-2.35 7.41,-4.95 10.63,-7.74 l -0.06,8.44 c -0.12,5.85 -1.7,11.3 -4.71,16.2 -3.03,4.93 -7.1,8.95 -12.1,11.92 -4.96,2.95 -10.5,4.45 -16.47,4.45 -4.88,0 -9.74,-1.14 -14.43,-3.39 -4.68,-2.24 -8.59,-5.31 -11.63,-9.14 -1.79,-2.42 -4.36,-3.71 -7.43,-3.71 -2.56,0 -4.77,0.92 -6.58,2.73 -1.81,1.81 -2.73,4.02 -2.73,6.58 0,2.22 0.71,4.21 2.09,5.92 4.9,6.12 11.01,10.98 18.16,14.43 7.16,3.45 14.74,5.2 22.54,5.2 6.97,0 13.64,-1.34 19.85,-3.99 6.18,-2.64 11.73,-6.34 16.49,-11.01 4.77,-4.67 8.57,-10.14 11.31,-16.26 2.75,-6.15 4.18,-12.77 4.24,-19.68 l 0.65,-87.04 0.1,-0.19 v -0.55 c 0,-2.55 -0.92,-4.76 -2.73,-6.58 -1.81,-1.81 -4.02,-2.73 -6.58,-2.73 z m -10.23,50.87 c 0,5.53 -1.28,10.8 -3.82,15.66 -2.53,4.86 -6.01,8.86 -10.35,11.87 -4.25,2.95 -9.15,4.45 -14.57,4.45 -5.42,0 -10.32,-1.5 -14.57,-4.45 -4.33,-3.01 -7.81,-7.01 -10.35,-11.87 -2.53,-4.86 -3.82,-10.13 -3.82,-15.66 0,-5.53 1.27,-10.88 3.77,-15.71 2.5,-4.83 5.97,-8.81 10.3,-11.82 4.25,-2.95 9.18,-4.45 14.66,-4.45 5.48,0 10.34,1.5 14.62,4.45 4.36,3.01 7.84,6.99 10.34,11.81 2.5,4.83 3.77,10.12 3.77,15.71 z"
           id="path1490"
           style="fill:#ffffff;fill-opacity:1" />
        <path
           class="cls-1"
           d="m 1044.52,534.76 c -4.43,-4.75 -9.65,-8.53 -15.53,-11.25 -5.91,-2.73 -12.36,-4.11 -19.17,-4.11 -6.81,0 -13.24,1.38 -19.13,4.11 -5.85,2.71 -11.05,6.5 -15.44,11.25 -4.38,4.73 -7.86,10.22 -10.33,16.3 -2.49,6.1 -3.75,12.59 -3.75,19.3 0,9.03 2.18,17.51 6.47,25.22 4.28,7.7 10.18,13.99 17.53,18.7 7.4,4.74 15.82,7.14 25.03,7.14 9.08,-0.07 17.39,-2.52 24.69,-7.29 7.25,-4.74 13.08,-11.02 17.33,-18.69 4.26,-7.68 6.42,-16.11 6.42,-25.08 0,-6.77 -1.26,-13.28 -3.75,-19.35 -2.48,-6.05 -5.97,-11.52 -10.38,-16.25 z m -4.48,35.6 c 0,5.7 -1.34,11.07 -3.98,15.95 -2.65,4.89 -6.28,8.91 -10.79,11.92 -4.45,2.97 -9.56,4.51 -15.16,4.57 -5.69,0 -10.88,-1.51 -15.41,-4.49 -4.59,-3.01 -8.26,-7.05 -10.91,-11.99 -2.65,-4.95 -3.99,-10.38 -3.99,-16.15 0,-5.77 1.35,-11.04 4.02,-15.89 2.68,-4.86 6.34,-8.85 10.88,-11.84 4.47,-2.94 9.57,-4.44 15.13,-4.44 5.56,0 10.77,1.49 15.28,4.44 4.57,2.99 8.24,7 10.91,11.91 2.67,4.92 4.03,10.3 4.03,16 z"
           id="path1492"
           style="fill:#ffffff;fill-opacity:1" />
        <path
           class="cls-1"
           d="m 1127.08,521.45 c -3.65,-1.36 -8.05,-2.05 -13.07,-2.05 -3.74,0 -7.46,1.06 -11.06,3.15 -3.46,2.01 -6.51,4.54 -9.05,7.51 -0.5,0.58 -0.97,1.17 -1.4,1.76 l -0.17,-2.09 c -0.02,-2.85 -0.77,-5.21 -2.25,-7.01 -1.58,-1.93 -3.74,-2.94 -6.22,-2.94 -2.34,0 -4.52,0.93 -6.48,2.77 -2,1.88 -3.01,4.33 -3.01,7.28 v 82.3 c 0,2.48 0.78,4.66 2.32,6.48 1.64,1.94 3.99,2.92 6.99,2.92 3,0 5.45,-0.99 7.06,-2.94 1.49,-1.82 2.25,-3.99 2.25,-6.45 v -50.57 c 0,-4.22 0.69,-8.28 2.04,-12.06 1.31,-3.64 3.46,-6.55 6.58,-8.89 3.03,-2.27 7.36,-3.43 12.88,-3.43 2.01,0 3.72,0.36 5.07,1.07 2.03,1.07 4.23,1.62 6.52,1.62 2.05,0 3.89,-1.02 5.47,-3.03 1.44,-1.84 2.17,-3.89 2.17,-6.09 0,-4.46 -2.29,-7.68 -6.63,-9.3 z"
           id="path1494"
           style="fill:#ffffff;fill-opacity:1" />
        <path
           class="cls-1"
           d="m 1151.59,485.73 c -3.27,0 -6.17,1.19 -8.62,3.52 -2.48,2.37 -3.74,5.28 -3.74,8.66 0,3.38 1.26,6.29 3.74,8.66 2.45,2.34 5.35,3.53 8.63,3.53 3.28,0 6.26,-1.19 8.68,-3.54 2.44,-2.37 3.68,-5.28 3.68,-8.64 0,-3.36 -1.24,-6.28 -3.68,-8.65 -2.43,-2.35 -5.35,-3.54 -8.68,-3.54 z"
           id="path1496"
           style="fill:#ffffff;fill-opacity:1" />
        <path
           class="cls-1"
           d="m 1158.18,522.06 c -1.86,-1.7 -4.21,-2.56 -6.96,-2.56 -1.85,0 -3.75,0.79 -5.66,2.33 -2.56,2.08 -3.09,4.43 -3.09,6.04 l 0.19,84.15 c 0,2.54 0.91,4.77 2.71,6.6 1.81,1.85 4.03,2.79 6.6,2.79 2.57,0 4.76,-0.92 6.58,-2.73 1.81,-1.81 2.73,-4.02 2.73,-6.58 l -0.19,-83.22 c 0,-2.78 -0.98,-5.08 -2.9,-6.84 z"
           id="path1498"
           style="fill:#ffffff;fill-opacity:1" />
        <path
           class="cls-1"
           d="m 1249.74,526.45 c -5.39,-4.55 -12.57,-6.86 -21.32,-6.86 -5.03,0 -9.66,1 -13.77,2.97 -4,1.92 -7.6,4.35 -10.69,7.21 -1.43,1.32 -2.78,2.65 -4.05,3.98 l -0.22,-5.19 c -0.01,-2.48 -0.82,-4.64 -2.4,-6.42 -1.64,-1.85 -3.87,-2.83 -6.44,-2.83 -2.57,0 -4.86,0.92 -6.64,2.75 -1.77,1.81 -2.66,4.05 -2.66,6.65 l 0.09,83.31 c 0,2.54 0.91,4.77 2.71,6.6 1.81,1.85 4.03,2.79 6.6,2.79 2.57,0 4.76,-0.92 6.58,-2.73 1.81,-1.81 2.73,-4.02 2.73,-6.58 v -45.46 c 0,-9.1 2.37,-16.21 7.05,-21.11 4.65,-4.87 11.76,-7.34 21.13,-7.34 4.78,0 8.3,1.2 10.77,3.67 2.58,2.58 4.4,6.05 5.41,10.29 1.07,4.5 1.61,9.47 1.61,14.76 l -0.09,44.91 c 0,2.54 0.91,4.77 2.71,6.6 1.81,1.85 4.03,2.79 6.6,2.79 2.57,0 4.76,-0.92 6.58,-2.73 1.81,-1.81 2.73,-4.02 2.73,-6.57 l 0.09,-45 c 0,-8.13 -1.18,-15.82 -3.51,-22.86 -2.39,-7.22 -6.28,-13.15 -11.57,-17.62 z"
           id="path1500"
           style="fill:#ffffff;fill-opacity:1" />
        <path
           class="cls-1"
           d="m 1336.37,489.37 c -2.55,-1.31 -5.4,-2.24 -8.46,-2.78 -3.01,-0.52 -5.33,-0.78 -7.08,-0.78 -10.08,0 -17.41,2.97 -21.78,8.83 -4.22,5.65 -6.36,13.7 -6.36,23.95 v 3.45 l -11.87,0.23 c -1.85,0 -3.6,0.91 -5.2,2.68 -1.54,1.71 -2.32,3.5 -2.32,5.33 0,2.78 0.83,5.06 2.46,6.77 1.66,1.75 3.81,2.63 6.39,2.63 h 10.55 l 0.18,72.34 c 0,2.54 0.91,4.77 2.71,6.6 1.81,1.85 4.03,2.79 6.6,2.79 2.57,0 4.76,-0.92 6.58,-2.73 1.81,-1.81 2.73,-4.02 2.73,-6.58 l -0.18,-72.43 h 17.78 c 1.92,0 3.75,-0.95 5.45,-2.81 1.64,-1.8 2.47,-3.7 2.47,-5.66 0,-2.39 -0.85,-4.53 -2.51,-6.36 -1.7,-1.87 -3.89,-2.85 -6.33,-2.85 h -16.89 l -0.06,-4.07 c -0.07,-12.45 5.1,-13.94 8.99,-13.97 h 0.03 c 2.25,-0.05 4.02,0.25 5.11,0.86 1.83,1.03 3.91,1.55 6.16,1.55 3.05,0 5.47,-1 7.2,-2.98 1.65,-1.89 2.48,-4.2 2.48,-6.88 0,-2.14 -0.83,-5.11 -4.8,-7.15 z"
           id="path1502"
           style="fill:#ffffff;fill-opacity:1" />
        <path
           class="cls-1"
           d="m 1433.94,551.02 c -2.48,-6.05 -5.97,-11.52 -10.38,-16.25 -4.43,-4.75 -9.65,-8.53 -15.53,-11.25 -5.91,-2.73 -12.36,-4.11 -19.17,-4.11 -6.81,0 -13.24,1.38 -19.13,4.11 -5.85,2.71 -11.05,6.5 -15.44,11.25 -4.38,4.73 -7.86,10.22 -10.33,16.3 -2.49,6.1 -3.75,12.59 -3.75,19.3 0,9.03 2.18,17.51 6.47,25.22 4.28,7.7 10.18,13.99 17.53,18.7 7.4,4.74 15.82,7.14 25.03,7.14 9.08,-0.07 17.39,-2.52 24.69,-7.29 7.25,-4.74 13.08,-11.02 17.33,-18.69 4.26,-7.68 6.42,-16.11 6.42,-25.08 0,-6.77 -1.26,-13.28 -3.75,-19.35 z m -14.86,19.35 c 0,5.7 -1.34,11.07 -3.98,15.95 -2.65,4.89 -6.28,8.91 -10.79,11.92 -4.45,2.97 -9.56,4.51 -15.16,4.57 -5.69,0 -10.88,-1.51 -15.41,-4.49 -4.59,-3.01 -8.26,-7.05 -10.91,-11.99 -2.65,-4.95 -3.99,-10.38 -3.99,-16.15 0,-5.77 1.35,-11.04 4.02,-15.89 2.68,-4.86 6.34,-8.85 10.88,-11.84 4.47,-2.94 9.57,-4.44 15.13,-4.44 5.56,0 10.77,1.49 15.28,4.44 4.57,2.99 8.24,7 10.91,11.91 2.67,4.92 4.03,10.3 4.03,16 z"
           id="path1504"
           style="fill:#ffffff;fill-opacity:1" />
      </g>
      <path
         class="cls-1"
         d="m 666.46,417.82 c -4.05,-3.3 -8.99,-5.27 -14.2,-5.66 -5.14,-0.38 -10.38,0.86 -14.8,3.52 -4.24,2.55 -7.75,6.37 -9.81,10.88 -2.18,4.75 -2.8,10.06 -1.77,15.18 2.02,10.02 10.55,18 20.63,19.51 1.3,0.2 2.61,0.31 3.93,0.31 5.17,-0.02 10.32,-1.6 14.55,-4.61 4.11,-2.93 7.27,-7 9.03,-11.73 3.59,-9.66 0.42,-20.91 -7.56,-27.39 z M 650.44,453 c -8.18,0 -14.98,-5.85 -16.47,-13.59 h 32.95 c -1.49,7.74 -8.3,13.59 -16.47,13.59 z"
         id="path1508"
         style="fill:#ffdf02;fill-opacity:1" />
      <path
         class="cls-1"
         d="m 626.07,493.83 -0.42,-0.33 c -0.27,-0.21 -0.54,-0.43 -0.82,-0.64 -15.17,-11.46 -33.31,-17.57 -52.45,-17.66 h -0.82 c -19.1,0.09 -37.23,6.2 -52.41,17.66 -3.14,2.37 -6.13,4.96 -8.89,7.7 -16.45,16.29 -26.63,38.7 -27.94,61.48 l 0.02,10.35 c 1.63,26.53 15.48,52.1 37.08,68.42 13.25,10.02 28.71,16.01 44.7,17.33 2.56,0.21 5.19,0.3 7.84,0.27 h 0.09 c 2.64,0.03 5.28,-0.06 7.84,-0.27 15.99,-1.32 31.44,-7.31 44.7,-17.33 0.09,-0.07 0.17,-0.13 0.26,-0.2 l 0.28,-0.22 c 21.27,-16.33 34.92,-41.75 36.54,-68.01 l 0.02,-10.35 c -1.31,-22.79 -11.49,-45.19 -27.94,-61.48 -2.35,-2.32 -4.92,-4.59 -7.66,-6.73 z m -35.91,128.26 c -5.55,2.05 -11.36,3.15 -17.26,3.27 -0.21,0 -0.41,0 -0.62,0 h -0.56 c -0.09,0 -0.18,0 -0.27,0 -0.12,0 -0.23,0 -0.35,0 -5.91,-0.12 -11.71,-1.22 -17.26,-3.27 -21.79,-8.06 -37.13,-30.74 -37.31,-55.16 0.09,-13.85 4.43,-26.66 12.56,-37.11 8.18,-10.52 19.48,-17.76 31.81,-20.39 3.6,-0.76 7.32,-1.18 11.06,-1.23 h 0.1 c 3.74,0.05 7.46,0.46 11.06,1.23 12.33,2.62 23.63,9.86 31.81,20.39 8.12,10.45 12.46,23.26 12.56,37.06 -0.17,24.47 -15.52,47.15 -37.31,55.21 z"
         id="path1510"
         style="fill:#ffdf02;fill-opacity:1" />
      <path
         class="cls-1"
         d="m 638.03,656.68 c 8.81,4.16 19.13,0.53 24.6,-7.17 2.52,-3.55 3.44,-7.72 3.46,-12.01 0.07,-13.43 0.06,-26.85 0.09,-40.28 0,-2.42 0.01,-4.85 0.02,-7.27 -5.43,21.94 -18.46,42.16 -36.69,56.16 l -0.21,0.17 c -0.05,0.04 -0.11,0.08 -0.16,0.13 0.17,0.48 0.33,0.96 0.54,1.43 1.7,3.72 4.63,7.09 8.36,8.85 z"
         id="path1512"
         style="fill:#ffdf02;fill-opacity:1" />
      <path
         class="cls-1"
         d="m 630.51,488.16 c 2.96,2.32 5.75,4.77 8.29,7.29 v 0 c 13.53,13.4 23.11,30.64 27.51,48.98 0,-1.78 0,-3.55 0.01,-5.33 0.03,-14.17 0.06,-28.34 0.09,-42.51 0,-2.38 -0.07,-4.75 -0.71,-7.06 -2.45,-8.95 -11.38,-15.36 -20.64,-14.69 -7.64,0.54 -13.34,5.6 -15.78,12.37 0.28,0.21 0.56,0.43 0.84,0.65 l 0.39,0.31 z"
         id="path1514"
         style="fill:#ffdf02;fill-opacity:1" />
    </g>
  </g>
</svg>
