<?xml version="1.0" encoding="UTF-8" standalone="no"?>
<!-- Created with Inkscape (http://www.inkscape.org/) -->

<svg
   width="197.1687"
   height="250.33191"
   viewBox="0 0 52.167551 66.233653"
   version="1.1"
   id="svg1575"
   inkscape:version="1.1.1 (3bf5ae0d25, 2021-09-20)"
   sodipodi:docname="logo_only.svg"
   xmlns:inkscape="http://www.inkscape.org/namespaces/inkscape"
   xmlns:sodipodi="http://sodipodi.sourceforge.net/DTD/sodipodi-0.dtd"
   xmlns="http://www.w3.org/2000/svg"
   xmlns:svg="http://www.w3.org/2000/svg">
  <sodipodi:namedview
     id="namedview1577"
     pagecolor="#172128"
     bordercolor="#666666"
     borderopacity="1.0"
     inkscape:pageshadow="2"
     inkscape:pageopacity="1"
     inkscape:pagecheckerboard="0"
     inkscape:document-units="px"
     showgrid="false"
     units="px"
     fit-margin-top="2"
     fit-margin-left="2"
     fit-margin-bottom="2"
     fit-margin-right="2"
     inkscape:zoom="1.5981902"
     inkscape:cx="11.888447"
     inkscape:cy="173.6339"
     inkscape:window-width="1920"
     inkscape:window-height="1080"
     inkscape:window-x="0"
     inkscape:window-y="0"
     inkscape:window-maximized="1"
     inkscape:current-layer="layer1" />
  <defs
     id="defs1572" />
  <g
     inkscape:label="Layer 1"
     inkscape:groupmode="layer"
     id="layer1"
     transform="translate(-80.896949,-102.75877)">
    <path
       class="cls-1"
       d="m 130.1465,104.80325 c -1.07157,-0.87313 -2.37861,-1.39436 -3.75709,-1.49754 -1.35996,-0.10055 -2.74637,0.22754 -3.91583,0.93133 -1.12183,0.67469 -2.05052,1.68539 -2.59556,2.87867 -0.5768,1.25677 -0.74084,2.6617 -0.46832,4.01637 0.53446,2.65113 2.79136,4.7625 5.45836,5.16202 0.34396,0.0529 0.69056,0.082 1.03981,0.082 1.3679,-0.005 2.7305,-0.42333 3.84969,-1.21973 1.08744,-0.77523 1.92352,-1.85208 2.38919,-3.10356 0.94985,-2.55587 0.11112,-5.53244 -2.00025,-7.24694 z m -4.23863,9.30804 c -2.16429,0 -3.96346,-1.54781 -4.35769,-3.59569 h 8.71802 c -0.39423,2.04788 -2.19604,3.59569 -4.35768,3.59569 z"
       id="path1075"
       style="fill:#ffdf02;stroke-width:0.264583" />
    <path
       class="cls-1"
       d="m 119.45997,124.91423 -0.11112,-0.0873 c -0.0714,-0.0556 -0.14288,-0.11377 -0.21696,-0.16933 -4.01373,-3.03212 -8.81327,-4.64873 -13.87739,-4.67254 h -0.21696 c -5.053544,0.0238 -9.850444,1.64042 -13.866824,4.67254 -0.83079,0.62706 -1.62189,1.31233 -2.35214,2.03729 -4.3524,4.31006 -7.04586,10.23938 -7.39246,16.26659 l 0.005,2.73843 c 0.43127,7.0194 4.09575,13.78479 9.81075,18.10279 3.50573,2.65113 7.59619,4.23598 11.826884,4.58523 0.67733,0.0556 1.37318,0.0794 2.07433,0.0714 h 0.0238 c 0.6985,0.008 1.397,-0.0159 2.07434,-0.0714 4.23068,-0.34925 8.3185,-1.9341 11.82687,-4.58523 0.0238,-0.0185 0.045,-0.0344 0.0688,-0.0529 l 0.0741,-0.0582 c 5.62768,-4.32065 9.23925,-11.04635 9.66787,-17.99431 l 0.005,-2.73844 c -0.3466,-6.02985 -3.04006,-11.95652 -7.39246,-16.26658 -0.62177,-0.61384 -1.30175,-1.21444 -2.0267,-1.78065 z m -9.50118,33.93545 c -1.46844,0.5424 -3.00567,0.83344 -4.56671,0.86519 -0.0556,0 -0.10848,0 -0.16404,0 h -0.14817 c -0.0238,0 -0.0476,0 -0.0714,0 -0.0317,0 -0.0608,0 -0.0926,0 -1.56369,-0.0318 -3.09827,-0.32279 -4.56671,-0.86519 -5.765274,-2.13254 -9.823984,-8.13329 -9.871604,-14.59441 0.0238,-3.66448 1.1721,-7.05379 3.32316,-9.81869 2.16429,-2.78342 5.15409,-4.699 8.416404,-5.39485 0.9525,-0.20109 1.93675,-0.31221 2.92629,-0.32544 h 0.0265 c 0.98954,0.0132 1.97379,0.12171 2.92629,0.32544 3.26231,0.6932 6.2521,2.60879 8.4164,5.39485 2.14841,2.7649 3.2967,6.15421 3.32316,9.80546 -0.045,6.47435 -4.10633,12.4751 -9.8716,14.60764 z"
       id="path1077"
       style="fill:#ffdf02;stroke-width:0.264583" />
    <path
       class="cls-1"
       d="m 122.62439,168.00162 c 2.33098,1.10067 5.06148,0.14023 6.50875,-1.89706 0.66675,-0.93927 0.91017,-2.04258 0.91546,-3.17765 0.0185,-3.55335 0.0159,-7.10406 0.0238,-10.65741 0,-0.64029 0.003,-1.28323 0.005,-1.92352 -1.43668,5.80495 -4.8842,11.15483 -9.70756,14.859 l -0.0556,0.045 c -0.0132,0.0106 -0.0291,0.0212 -0.0423,0.0344 0.045,0.127 0.0873,0.254 0.14287,0.37836 0.44979,0.98425 1.22502,1.87589 2.21192,2.34156 z"
       id="path1079"
       style="fill:#ffdf02;stroke-width:0.264583" />
    <path
       class="cls-1"
       d="m 120.63472,123.41404 c 0.78317,0.61383 1.52136,1.26206 2.1934,1.92881 v 0 c 3.57981,3.54542 6.11452,8.10683 7.27869,12.95929 0,-0.47096 0,-0.93927 0.003,-1.41023 0.008,-3.74914 0.0159,-7.49829 0.0238,-11.24743 0,-0.62971 -0.0185,-1.25677 -0.18786,-1.86796 -0.64823,-2.36802 -3.01096,-4.064 -5.461,-3.88673 -2.02141,0.14287 -3.52954,1.48167 -4.17512,3.27289 0.0741,0.0556 0.14816,0.11378 0.22225,0.17198 l 0.10318,0.082 z"
       id="path1081"
       style="fill:#ffdf02;stroke-width:0.264583" />
  </g>
</svg>
